<svg xmlns="http://www.w3.org/2000/svg" viewBox="0 0 100 100"><!-- cv4pve-autosnap icon. Pictogram: Lucide "camera" (ISC license, https://lucide.dev) --><circle cx="50" cy="50" r="50" fill="#1a4269"/><g transform="translate(17.00 17.00) scale(2.75)" fill="none" stroke="#ffffff" stroke-width="2.3" stroke-linecap="round" stroke-linejoin="round"><path d="M13.997 4a2 2 0 0 1 1.76 1.05l.486.9A2 2 0 0 0 18.003 7H20a2 2 0 0 1 2 2v9a2 2 0 0 1-2 2H4a2 2 0 0 1-2-2V9a2 2 0 0 1 2-2h1.997a2 2 0 0 0 1.759-1.048l.489-.904A2 2 0 0 1 10.004 4z" /><circle cx="12" cy="13" r="3" /></g></svg>
